<?xml version="1.0" encoding="UTF-8"?>
<svg xmlns="http://www.w3.org/2000/svg" viewBox="0 0 600 600">
  <defs>
    <style>
      .cls-1 {
        fill: none;
        stroke: #000;
        stroke-miterlimit: 10;
        stroke-width: 3px;
      }
    </style>
  </defs>
  <g id="Layer_2" data-name="Layer 2">
    <path class="cls-1" d="M300.17,158.72c3.68,1.17,1.09,9.7,7.66,17.87,3.18,3.95,5.14,3.65,11.74,8.17,8.18,5.61,17.63,12.08,19.4,21.96,1.69,9.37-4.31,17.46-6.13,19.91-1.33,1.79-7.05,9.11-17.36,11.74-16.33,4.18-29.43-7.15-31.15-8.68-.9-.81-13.19-12.13-12.26-28.6.42-7.53,4.03-13.19,11.23-24.51,4.68-7.35,12.29-19.32,16.85-17.87Z"/>
    <path class="cls-1" d="M348.17,209.28l.16-.6c.71-2.8,1.46-7.51-.16-12.68-2.27-7.26-7.94-11.33-12.77-14.81-7.58-5.45-10.17-4.31-17.36-9.7-2.74-2.05-7.95-5.96-11.23-11.74-7.79-13.73-.49-30.59-2.55-31.15-1.49-.41-3.63,8.88-11.23,18.38-5.78,7.23-9.66,8.27-15.83,13.79-2.69,2.41-15.34,13.74-18.89,31.15-3.69,18.08,4,35.05,12.26,44.43,4.83,5.48,9.3,10.56,16.34,11.74,3.99.67,6.89-.23,9.7,2.04,3.7,2.99,5.01,9.68,2.55,12.26-2.54,2.66-7.56-.7-15.83-1.28-9.27-.65-18.39,2.49-24,6.38-11.72,8.15-19.18,27.33-11.74,43.91,8.4,18.74,30.34,20.83,31.66,20.94,14.2,1.12,28.27-5.73,35.74-17.36,1.47-2.28,6.99-11.11,5.62-22.47-.36-2.98-1.19-9.82-6.13-15.65-4.13-4.87-8.47-5.89-8.68-9.88-.16-2.93,2.34-3.53,3.06-8.68.64-4.58-.66-5.85.51-7.66,2.2-3.4,7.64-.15,14.81-3.06,7.15-2.91,9.01-9.12,12.26-8.17,2.33.68,2.27,4.11,4.03,7.61,0,0,1.33,2.07,3.69,4.49,4.97,5.11,14.58,6.73,18.84,7.82,13.43,3.45,23.74,14.56,28.09,23.49,1,2.06,3.24,7.22,3.06,20.94-.29,22.35-6.63,40.41-11.23,51.57-11.73,28.45-24.39,41.83-22.47,43.4,2.13,1.74,20.15-12.63,32.68-33.7,12.11-20.36,14.32-38.95,14.81-43.91,1.15-11.59,4.27-43.09-13.28-57.7-11.75-9.79-23.49-13.28-23.49-13.28-5.27-1.57-9.56-1.99-13.79-5.62-1.07-.92-9.18-8.02-7.66-15.32.2-.97.55-1.83,6.64-9.7,2.55-3.29,3.82-4.94,5.62-7.15,5.74-7.06,9.59-18.75,10.72-29.11.37-3.34,1.41-15.32-3.57-29.11-9.19-25.43-31.66-37.13-37.28-39.83-28.99-13.95-56.98-4.17-64.85-1.02-32.69,13.07-45.19,42.28-48.51,50.04-2.72,6.36-10.37,24.87-7.15,48.51,4.32,31.78,25.59,53.15,26.55,52.6.61-.35-6.32-10.08-11.74-28.09-1.92-6.37-5.23-17.64-5.62-31.15-.24-8.43-.58-32.31,15.32-55.15,4.56-6.55,17.79-25.57,43.4-32.17,5.28-1.36,30.43-7.85,53.62,7.66,18.87,12.62,24.36,31.72,25.53,36.26,5.24,20.28-1.47,36.88-3.57,41.87-1.33,3.16-2.7,5.7-3.74,7.49l-2.89-1.87Z"/>
    <path class="cls-1" d="M307.83,357.87c-.47-.95-4.85,1.38-11.23,2.04-12.56,1.3-22.78-4.93-28.09-8.17-2.59-1.58-17.65-11.04-24.51-29.11-2.83-7.45-2.92-12.82-4.09-12.77-1.84.09-4.82,13.75-1.02,27.06,4.01,14.05,13.93,22.01,17.36,24.51,3.28,2.39,16.47,12.02,32.17,8.68,11.36-2.42,20.13-10.8,19.4-12.26Z"/>
    <path class="cls-1" d="M259.15,297.96c-.34-4.5.56-8,1.02-9.53.36-1.18,1.56-5.06,4.43-8.51,6.75-8.15,17.92-8.18,19.06-8.17,1.51.02,14.23.38,21.11,11.23,7.11,11.22,1.44,23.31.68,24.85-.93,1.9-4.97,10.14-14.3,12.94-9.05,2.72-16.76-1.59-19.4-3.06-1.83-1.02-5.52-3.14-8.51-7.49-3.48-5.06-3.92-10.11-4.09-12.26Z"/>
    <path class="cls-1" d="M289.11,340.17c-.28,1.23,6.18,4.55,13.28,5.11,6.07.48,10.75-1.22,13.96-2.38,4.15-1.5,9.14-3.31,13.28-8.17,2.51-2.95,3.6-5.72,5.11-9.53,2.28-5.79,1.95-8.36,1.75-9.39-.44-2.31-1.81-5.56-3.45-5.59-1.86-.04-3.12,4.09-4.43,7.15-4.43,10.39-14.01,19.29-22.81,22.13-8.88,2.86-16.38-.64-16.68.68Z"/>
    <path class="cls-1" d="M353.45,288.77c-1.58-.1-1.23,16.78-10.21,39.15-2.73,6.8-7.22,17.72-16.68,29.28-5.55,6.78-16.42,20.05-34.04,26.21-20.46,7.15-38.17.57-38.47,2.38-.29,1.73,15.69,8.51,34.38,7.15,17.02-1.24,29.1-8.69,32-10.55,25.49-16.41,31.25-45.26,33.36-55.83,4-20.07,1.26-37.69-.34-37.79Z"/>
    <path class="cls-1" d="M247.23,247.23c1.3-.71-6.7-12.15-8.17-30.3-.89-10.99,1.01-19.57,2.38-25.53,4.12-17.91,12.23-30.12,14.98-34.04,13.34-19,29.1-25.92,28.26-27.23-.9-1.4-19.45,5.29-34.04,21.45-2.57,2.85-9.79,11.28-14.98,24.51-2.6,6.63-10.72,27.35-3.06,49.36,4.63,13.31,13.41,22.45,14.64,21.79Z"/>
    <path class="cls-1" d="M197.87,341.87c.81-.4-7.38-12.32-9.19-31.32-1.11-11.67.69-20.74,2.04-27.57,2.58-13.03,7.72-27.02,13.28-33.7,6.7-8.06,6.81-8.17,6.81-8.17,3.23-3.45,4.21-3.95,4.77-5.79,1.02-3.38-1.19-5.46-3.06-11.23-2.68-8.25-.83-12.18-2.72-12.94-3.99-1.59-14.08,15.09-15.66,17.7-3.74,6.18-8.08,13.47-11.57,24.51-2.52,7.97-8.69,28.35-3.06,52.43,5.08,21.74,17.45,36.55,18.38,36.09Z"/>
    <path class="cls-1" d="M138.98,151.91c-.8-1.03,15.46-19.01,40.17-30.98,16.74-8.11,34.34-12,35.06-10.21.86,2.12-21.41,13.48-31.66,18.38-10.07,4.82-12.99,5.54-22.47,10.55-14.54,7.69-20.64,12.85-21.11,12.26Z"/>
    <path class="cls-1" d="M234.64,132.17c-.93-2.65-26.1,3.78-29.96,4.77-7.69,1.96-19.62,5.01-31.66,10.55-24.4,11.23-39.38,28.14-48.34,38.47-24.74,28.5-33.63,57.32-35.4,63.32-4.51,15.28-13.78,46.64-2.38,83.74,14.45,47.05,51.86,69.88,62.3,76.26,24.14,14.74,48.11,19.41,48.68,18.04.56-1.34-21.47-7.95-42.89-26.89-17.87-15.81-26.95-32.79-30.98-40.51-24.6-47.07-16.22-93.42-14.98-99.74,9.83-50.22,42.54-79.23,51.74-87.15,34.39-29.6,75.05-37.52,73.87-40.85Z"/>
    <path class="cls-1" d="M215.57,162.47c.77.65-.09,2.32-2.04,8.51-2.09,6.63-2,7.59-3.4,9.87-1.49,2.42-3.1,3.8-5.45,5.79-7.49,6.32-11.23,9.48-12.6,10.55-5.6,4.38-8.61,8.93-14.64,18.04-7.65,11.57-17.7,26.77-22.13,49.02-1.09,5.48-5.37,29.16,3.4,57.87,2.39,7.81,10.35,31.08,32,52.43,21.39,21.09,44.24,28.57,55.15,32,28.06,8.83,51.25,6.72,56.85,6.13,24.9-2.65,40.56-11.66,41.53-9.53,1.01,2.22-15.02,13.99-35.06,20.09-11.79,3.59-21.1,4.03-36.43,4.77-13.4.64-24.11,1.08-37.79-2.04-9.36-2.13-15.86-4.96-23.15-8.17-11.93-5.26-28.15-12.41-43.91-27.23-14.78-13.91-22.26-28.07-25.87-35.06-5.17-10-21-41.71-14.98-82.72,0,0,4.01-27.31,26.89-62.98,3.22-5.02,8.94-13.8,18.67-22.11,4.11-3.52,8.3-6.4,8.91-6.82,6.41-4.4,7.33-4,18.04-10.55,1.01-.62,3.51-2,8.51-4.77,5.21-2.88,6.77-3.67,7.49-3.06Z"/>
    <path class="cls-1" d="M367.4,89.62c.33-.7,16.36,5.47,33.18,14.92,1.4.78,9.49,5.36,17.54,10.95,25.81,17.94,44.64,41.85,49.36,48,9.47,12.33,29.82,39.36,41.19,80,5.93,21.18,19.04,80.46-8.51,144.68-4.85,11.31-17.65,38.34-43.91,65.02-2.13,2.16-7.89,7.84-15.94,14.44-28.23,23.16-56.65,34.5-72.23,39.69-15.56,5.18-50.55,16.43-95.66,10.55-5.72-.74-33.46-4.61-66.04-20.43-9.28-4.51-30.42-15.54-53.11-35.74-32.92-29.32-51.8-62.52-50.38-63.66.84-.67,8.4,10.17,24.85,22.81,13.37,10.28,25.05,15.93,32.34,19.4,39.39,18.79,76.97,20.9,81.36,21.11,10.31.48,41.57,1.17,78.98-11.91,8.02-2.8,40.77-14.8,74.21-44.26,11-9.69,34.05-31.83,52.77-67.06,3.38-6.37,16.13-31.07,23.49-66.04,4.24-20.16,7.73-36.72,4.43-58.89-.71-4.75-4.14-25.98-18.04-49.7-2.49-4.26-11.48-19.1-28.6-35.06-29.93-27.92-61.74-37.84-61.28-38.81Z"/>
  </g>
  <g id="Layer_3" data-name="Layer 3">
    <path class="cls-1" d="M368.09,89.96c.38-.76,15.35,5.63,29.62,13.28,6.18,3.31,14.9,8.02,25.19,15.32,22.52,15.96,36.25,32.73,39.49,36.77,13.31,16.6,24.85,37.11,24.85,37.11-2.68-.13-6.02.08-7.15,2.04-1.37,2.39,1.33,5.99,3.74,10.55.68,1.28,2.49,6.87,6.13,18.04,5.3,16.28,6.36,42.41,6.47,45.28,1.3,35.02-5,62.33-6.47,68.43-1.03,4.3-8.07,32.86-24.11,61.7-6.93,12.47-11.21,20.16-19.12,27.83-4.96,4.8-9.27,10.3-14.64,14.64-4.73,3.82-8.23,5.89-8.17,9.19.05,2.84,2.71,5.21,7.15,9.19,4.65,4.16,6.97,4.82,7.15,7.15.2,2.58-2.34,5.64-5.11,6.13-2.44.43-3.62-1.4-10.55-6.47-5.57-4.07-11.57-7.83-11.57-7.83,0,0-3.14,2.5-4.77,3.74-2.27,1.74-4.04,2.89-7.49,5.11-3.64,2.35-4.48,2.78-9.87,6.13-6.5,4.04-6.16,3.96-8.17,5.11-2.6,1.48-5.35,2.86-11.57,5.45-6.13,2.55-11.75,4.89-19.74,7.49-4.49,1.46-12.06,3.9-21.45,5.79-10.53,2.12-19.57,2.43-28.6,3.06-17.61,1.23-44.25,3.08-75.23-4.43-11.4-2.76-35.04-8.72-60.26-26.21-30.69-21.28-48.21-48.87-47.32-49.7.42-.39,5.05,5.02,14.3,12.26,15.34,12.01,29.42,18.12,36.43,21.11,32.32,13.77,62.58,14.72,74.21,14.98,10.4.23,19.65-.32,19.74.68.23,2.32-49.12,6.44-49.02,10.89.09,3.9,38.12,9.87,78.64,5.11,51.62-6.06,86.26-27.07,93.62-31.66,30.39-18.97,48.39-40.91,55.15-49.7,5.27-6.85,21.54-28.92,32.68-62.3,4.35-13.03,15-49.02,9.87-95.66-1.67-15.17-4.22-36.69-16-61.96-3.21-6.87-20.01-41.72-57.53-69.45-20.89-15.44-40.95-23.3-40.51-24.17Z"/>
  </g>
  <g id="Layer_4" data-name="Layer 4">
    <path class="cls-1" d="M432.09,473.96c.22-1-.19-2.63-11.91-10.89-5.26-3.71-6.2-4.1-7.49-4.09-4.05.05-6.17,4.01-10.55,8.17-2.83,2.68-6.99,4.85-15.32,9.19-33.23,17.32-58.21,22.13-58.21,22.13-8.15,1.57-19.91,3.21-34.38,3.06-2.34-.79-5.63-1.45-8.51,0-3.26,1.64-3.46,4.69-6.47,8.17-5.04,5.83-11.67,5.6-11.57,6.81.19,2.56,30.01,5.39,65.5-.1,28.86-4.47,47.49-12.29,51.73-14.11,17.04-7.32,30.4-16.18,33.66-18.57,2.53-1.85,4.33-3.74,8.77-6.37,3.31-1.96,4.5-2.2,4.77-3.4Z"/>
  </g>
</svg>